<svg viewBox="0 0 1454 400" xmlns="http://www.w3.org/2000/svg"><g><g><g><g><g><line x1="51.5625" y1="378" x2="46.5625" y2="378" style="visibility: inherit;" fill="rgb(0, 0, 0)" stroke="rgb(204, 204, 204)" stroke-width="1px"></line><line x1="51.5625" y1="348.9230769230769" x2="46.5625" y2="348.9230769230769" style="visibility: inherit;" fill="rgb(0, 0, 0)" stroke="rgb(204, 204, 204)" stroke-width="1px"></line><line x1="51.5625" y1="319.8461538461538" x2="46.5625" y2="319.8461538461538" style="visibility: inherit;" fill="rgb(0, 0, 0)" stroke="rgb(204, 204, 204)" stroke-width="1px"></line><line x1="51.5625" y1="290.76923076923066" x2="46.5625" y2="290.76923076923066" style="visibility: inherit;" fill="rgb(0, 0, 0)" stroke="rgb(204, 204, 204)" stroke-width="1px"></line><line x1="51.5625" y1="261.6923076923076" x2="46.5625" y2="261.6923076923076" style="visibility: inherit;" fill="rgb(0, 0, 0)" stroke="rgb(204, 204, 204)" stroke-width="1px"></line><line x1="51.5625" y1="232.61538461538458" x2="46.5625" y2="232.61538461538458" style="visibility: inherit;" fill="rgb(0, 0, 0)" stroke="rgb(204, 204, 204)" stroke-width="1px"></line><line x1="51.5625" y1="203.5384615384615" x2="46.5625" y2="203.5384615384615" style="visibility: inherit;" fill="rgb(0, 0, 0)" stroke="rgb(204, 204, 204)" stroke-width="1px"></line><line x1="51.5625" y1="174.4615384615384" x2="46.5625" y2="174.4615384615384" style="visibility: inherit;" fill="rgb(0, 0, 0)" stroke="rgb(204, 204, 204)" stroke-width="1px"></line><line x1="51.5625" y1="145.38461538461542" x2="46.5625" y2="145.38461538461542" style="visibility: inherit;" fill="rgb(0, 0, 0)" stroke="rgb(204, 204, 204)" stroke-width="1px"></line><line x1="51.5625" y1="116.3076923076922" x2="46.5625" y2="116.3076923076922" style="visibility: inherit;" fill="rgb(0, 0, 0)" stroke="rgb(204, 204, 204)" stroke-width="1px"></line><line x1="51.5625" y1="87.23076923076917" x2="46.5625" y2="87.23076923076917" style="visibility: inherit;" fill="rgb(0, 0, 0)" stroke="rgb(204, 204, 204)" stroke-width="1px"></line><line x1="51.5625" y1="58.15384615384595" x2="46.5625" y2="58.15384615384595" style="visibility: inherit;" fill="rgb(0, 0, 0)" stroke="rgb(204, 204, 204)" stroke-width="1px"></line><line x1="51.5625" y1="29.076923076922974" x2="46.5625" y2="29.076923076922974" style="visibility: inherit;" fill="rgb(0, 0, 0)" stroke="rgb(204, 204, 204)" stroke-width="1px"></line><line x1="51.5625" y1="0" x2="46.5625" y2="0" style="visibility: inherit;" fill="rgb(0, 0, 0)" stroke="rgb(204, 204, 204)" stroke-width="1px"></line></g><g transform="translate(41.5625, 0)"><text x="0" y="378" dx="0em" dy="0.3em" style="text-anchor: end; visibility: hidden; font-family: Roboto, sans-serif; font-size: 12px; font-weight: 200;" fill="rgb(50, 49, 63)" stroke="none" stroke-width="1px">1.65</text><text x="0" y="348.9230769230769" dx="0em" dy="0.3em" style="text-anchor: end; visibility: inherit; font-family: Roboto, sans-serif; font-size: 12px; font-weight: 200;" fill="rgb(50, 49, 63)" stroke="none" stroke-width="1px">1.7</text><text x="0" y="319.8461538461538" dx="0em" dy="0.3em" style="text-anchor: end; visibility: inherit; font-family: Roboto, sans-serif; font-size: 12px; font-weight: 200;" fill="rgb(50, 49, 63)" stroke="none" stroke-width="1px">1.75</text><text x="0" y="290.76923076923066" dx="0em" dy="0.3em" style="text-anchor: end; visibility: inherit; font-family: Roboto, sans-serif; font-size: 12px; font-weight: 200;" fill="rgb(50, 49, 63)" stroke="none" stroke-width="1px">1.8</text><text x="0" y="261.6923076923076" dx="0em" dy="0.3em" style="text-anchor: end; visibility: inherit; font-family: Roboto, sans-serif; font-size: 12px; font-weight: 200;" fill="rgb(50, 49, 63)" stroke="none" stroke-width="1px">1.85</text><text x="0" y="232.61538461538458" dx="0em" dy="0.3em" style="text-anchor: end; visibility: inherit; font-family: Roboto, sans-serif; font-size: 12px; font-weight: 200;" fill="rgb(50, 49, 63)" stroke="none" stroke-width="1px">1.9</text><text x="0" y="203.5384615384615" dx="0em" dy="0.3em" style="text-anchor: end; visibility: inherit; font-family: Roboto, sans-serif; font-size: 12px; font-weight: 200;" fill="rgb(50, 49, 63)" stroke="none" stroke-width="1px">1.95</text><text x="0" y="174.4615384615384" dx="0em" dy="0.3em" style="text-anchor: end; visibility: inherit; font-family: Roboto, sans-serif; font-size: 12px; font-weight: 200;" fill="rgb(50, 49, 63)" stroke="none" stroke-width="1px">2</text><text x="0" y="145.38461538461542" dx="0em" dy="0.3em" style="text-anchor: end; visibility: inherit; font-family: Roboto, sans-serif; font-size: 12px; font-weight: 200;" fill="rgb(50, 49, 63)" stroke="none" stroke-width="1px">2.05</text><text x="0" y="116.3076923076922" dx="0em" dy="0.3em" style="text-anchor: end; visibility: inherit; font-family: Roboto, sans-serif; font-size: 12px; font-weight: 200;" fill="rgb(50, 49, 63)" stroke="none" stroke-width="1px">2.1</text><text x="0" y="87.23076923076917" dx="0em" dy="0.3em" style="text-anchor: end; visibility: inherit; font-family: Roboto, sans-serif; font-size: 12px; font-weight: 200;" fill="rgb(50, 49, 63)" stroke="none" stroke-width="1px">2.15</text><text x="0" y="58.15384615384595" dx="0em" dy="0.3em" style="text-anchor: end; visibility: inherit; font-family: Roboto, sans-serif; font-size: 12px; font-weight: 200;" fill="rgb(50, 49, 63)" stroke="none" stroke-width="1px">2.2</text><text x="0" y="29.076923076922974" dx="0em" dy="0.3em" style="text-anchor: end; visibility: inherit; font-family: Roboto, sans-serif; font-size: 12px; font-weight: 200;" fill="rgb(50, 49, 63)" stroke="none" stroke-width="1px">2.25</text><text x="0" y="0" dx="0em" dy="0.3em" style="text-anchor: end; visibility: hidden; font-family: Roboto, sans-serif; font-size: 12px; font-weight: 200;" fill="rgb(50, 49, 63)" stroke="none" stroke-width="1px">2.3</text></g><line x1="51.5625" y1="0" x2="51.5625" y2="378" fill="rgb(0, 0, 0)" stroke="rgb(204, 204, 204)" stroke-width="1px"></line></g></g><g transform="translate(51, 0)" clip-path="url(#clip_0)"><clipPath id="clip_0"><rect width="1402" height="378"></rect></clipPath><g><g><g><line x1="0" y1="0" x2="0" y2="378" fill="rgb(0, 0, 0)" stroke="rgb(60, 60, 60)" stroke-width="1px" opacity="0.25"></line><line x1="140.24375" y1="0" x2="140.24375" y2="378" fill="rgb(0, 0, 0)" stroke="rgb(60, 60, 60)" stroke-width="1px" opacity="0.25"></line><line x1="280.4875" y1="0" x2="280.4875" y2="378" fill="rgb(0, 0, 0)" stroke="rgb(60, 60, 60)" stroke-width="1px" opacity="0.25"></line><line x1="420.73125" y1="0" x2="420.73125" y2="378" fill="rgb(0, 0, 0)" stroke="rgb(60, 60, 60)" stroke-width="1px" opacity="0.25"></line><line x1="560.975" y1="0" x2="560.975" y2="378" fill="rgb(0, 0, 0)" stroke="rgb(60, 60, 60)" stroke-width="1px" opacity="0.25"></line><line x1="701.21875" y1="0" x2="701.21875" y2="378" fill="rgb(0, 0, 0)" stroke="rgb(60, 60, 60)" stroke-width="1px" opacity="0.25"></line><line x1="841.4625" y1="0" x2="841.4625" y2="378" fill="rgb(0, 0, 0)" stroke="rgb(60, 60, 60)" stroke-width="1px" opacity="0.25"></line><line x1="981.70625" y1="0" x2="981.70625" y2="378" fill="rgb(0, 0, 0)" stroke="rgb(60, 60, 60)" stroke-width="1px" opacity="0.25"></line><line x1="1121.95" y1="0" x2="1121.95" y2="378" fill="rgb(0, 0, 0)" stroke="rgb(60, 60, 60)" stroke-width="1px" opacity="0.25"></line><line x1="1262.1937500000001" y1="0" x2="1262.1937500000001" y2="378" fill="rgb(0, 0, 0)" stroke="rgb(60, 60, 60)" stroke-width="1px" opacity="0.25"></line><line x1="1402.4375" y1="0" x2="1402.4375" y2="378" fill="rgb(0, 0, 0)" stroke="rgb(60, 60, 60)" stroke-width="1px" opacity="0.25"></line></g><g><line x1="0" y1="378" x2="1402.4375" y2="378" fill="rgb(0, 0, 0)" stroke="rgb(60, 60, 60)" stroke-width="1px" opacity="0.25"></line><line x1="0" y1="348.9230769230769" x2="1402.4375" y2="348.9230769230769" fill="rgb(0, 0, 0)" stroke="rgb(60, 60, 60)" stroke-width="1px" opacity="0.25"></line><line x1="0" y1="319.8461538461538" x2="1402.4375" y2="319.8461538461538" fill="rgb(0, 0, 0)" stroke="rgb(60, 60, 60)" stroke-width="1px" opacity="0.25"></line><line x1="0" y1="290.76923076923066" x2="1402.4375" y2="290.76923076923066" fill="rgb(0, 0, 0)" stroke="rgb(60, 60, 60)" stroke-width="1px" opacity="0.25"></line><line x1="0" y1="261.6923076923076" x2="1402.4375" y2="261.6923076923076" fill="rgb(0, 0, 0)" stroke="rgb(60, 60, 60)" stroke-width="1px" opacity="0.25"></line><line x1="0" y1="232.61538461538458" x2="1402.4375" y2="232.61538461538458" fill="rgb(0, 0, 0)" stroke="rgb(60, 60, 60)" stroke-width="1px" opacity="0.25"></line><line x1="0" y1="203.5384615384615" x2="1402.4375" y2="203.5384615384615" fill="rgb(0, 0, 0)" stroke="rgb(60, 60, 60)" stroke-width="1px" opacity="0.25"></line><line x1="0" y1="174.4615384615384" x2="1402.4375" y2="174.4615384615384" fill="rgb(0, 0, 0)" stroke="rgb(60, 60, 60)" stroke-width="1px" opacity="0.25"></line><line x1="0" y1="145.38461538461542" x2="1402.4375" y2="145.38461538461542" fill="rgb(0, 0, 0)" stroke="rgb(60, 60, 60)" stroke-width="1px" opacity="0.25"></line><line x1="0" y1="116.3076923076922" x2="1402.4375" y2="116.3076923076922" fill="rgb(0, 0, 0)" stroke="rgb(60, 60, 60)" stroke-width="1px" opacity="0.25"></line><line x1="0" y1="87.23076923076917" x2="1402.4375" y2="87.23076923076917" fill="rgb(0, 0, 0)" stroke="rgb(60, 60, 60)" stroke-width="1px" opacity="0.25"></line><line x1="0" y1="58.15384615384595" x2="1402.4375" y2="58.15384615384595" fill="rgb(0, 0, 0)" stroke="rgb(60, 60, 60)" stroke-width="1px" opacity="0.25"></line><line x1="0" y1="29.076923076922974" x2="1402.4375" y2="29.076923076922974" fill="rgb(0, 0, 0)" stroke="rgb(60, 60, 60)" stroke-width="1px" opacity="0.25"></line><line x1="0" y1="0" x2="1402.4375" y2="0" fill="rgb(0, 0, 0)" stroke="rgb(60, 60, 60)" stroke-width="1px" opacity="0.25"></line></g></g></g><g><g><line x1="0" y1="1337.5384615384617" x2="1402.4375" y2="1337.5384615384617" fill="rgb(0, 0, 0)" stroke="rgb(153, 153, 153)" stroke-width="1.5px"></line></g></g><g><g><line x1="140.24375" y1="0" x2="140.24375" y2="378" fill="rgb(0, 0, 0)" stroke="rgb(153, 153, 153)" stroke-width="1.5px"></line></g></g><g><g><g><g><g><path stroke="rgb(255, 112, 67)" stroke-width="2px" d="M169.6949375,-9.090959258196246L171.097375,0.39065046388081104L172.4998125,6.736878033962845L173.90225,11.187160752282765L175.3046875,21.46936251076163L176.707125,-2.747809212054723L178.1095625,-11.592958684292686L179.512,1.0647372604058254L180.9144375,10.25423668024243L182.316875,15.186516714374626L183.7193125,26.942938322553786L185.12175000000002,35.5603066524315L186.5241875,40.549839001741766L187.926625,44.61730736662695L189.32906250000002,48.053967727113715L190.7315,45.989958357096654L192.1339375,50.793816623939264L193.53637500000002,47.029852643200584L194.9388125,51.06431911489955L196.34125000000003,56.751726551336084L197.7436875,63.3824008548159L199.14612499999998,66.62579376875044L200.54856249999997,71.96083925613291L201.951,73.62186402492695L203.35343749999998,71.76686666438286L204.75587499999997,74.10097450385273L206.1583125,77.86754556312535L207.56074999999998,68.68681121508494L208.9631875,76.74304384694317L210.365625,82.23679047277187L211.76806249999998,83.92633154300468L213.1705,77.97968098901033L214.5729375,77.87863956514882L215.97537499999999,81.44611454694257L217.3778125,88.66631769415626L218.78025,83.6207953634975L220.18268750000001,89.0031412863818L221.585125,92.85368364021426L222.9875625,95.58929595857158L224.39000000000001,98.91713470266829L225.7924375,103.61104626268609L227.194875,106.52057435649559L228.59731250000002,104.85671534374697L229.99975,107.89034107940286L231.40218750000003,113.01116295698993L232.80462500000002,116.85564884794293L234.2070625,115.35665890841138L235.60950000000003,115.16391024694566L237.01193750000002,117.74471452223528L238.414375,122.56859743548586L239.81681250000003,123.8033377512794L241.21925,123.91186255480628L242.62168749999998,121.79486004831426L244.02412499999997,123.95176976600061L245.4265625,126.41375770053797L246.82899999999998,125.56049511831954L248.2314375,127.3294086446015L249.633875,131.31340371043856L251.03631249999998,134.62805547904864L252.43875,134.9710250255925L253.8411875,136.03732316667345L255.24362499999998,134.82925642794288L256.64606249999997,138.28104161760342L258.0485,142.8618897315007L259.4509375,142.54794594122717L260.85337499999997,141.4270840872363L262.2558125,145.07982456194503L263.65825,145.39925943579652L265.06068750000003,145.56567047184538L266.463125,143.24427120586728L267.8655625,144.6640013677777L269.26800000000003,145.64116693352716L270.6704375,149.77508818153822L272.072875,152.06832128274715L273.47531250000003,153.18112462661452L274.87775,154.88376369268053L276.2801875,157.272175470667L277.68262500000003,159.08639364477523L279.0850625,162.1255627168182L280.4875,160.53411096828756L281.88993750000003,162.01075041039803L283.292375,161.40351075002405L284.6948125,163.4601131860766L286.09725,164.9052471470745L287.4996875,165.14615180644827L288.902125,167.85823482345913L290.3045625,168.57427998265973L291.707,169.34680716059202L293.1094375,172.27404038311622L294.511875,172.37704278380565L295.9143125,172.8853380887447L297.31675,173.9760240222611L298.7191875,172.82319414846236L300.121625,172.6368750326375L301.5240625,174.18123771757428L302.9265,172.57253135707842L304.3289375,173.44070317536344L305.731375,173.29396683693298L307.1338125,174.24045585528927L308.53625,176.16820082326564L309.9386875,178.9514800580023L311.341125,180.91447262401996L312.7435625,182.62410889583415L314.146,182.06512907881225L315.54843750000003,180.79842914227928L316.950875,181.18581632624085L318.3533125,182.07669145579487L319.75575000000003,183.14530062243043L321.1581875,184.31935331857252L322.560625,185.21692552523703L323.96306250000004,186.08347497848013L325.3655,184.44141629009772L326.7679375,183.06417306767713L328.17037500000004,183.9208913550774L329.5728125,182.32614336176633L330.97524999999996,183.46821915650477L332.3776875,182.372007874369L333.780125,184.17079522830684L335.18256249999996,184.79506482736002L336.585,184.80335466224514L337.9874375,182.64958394149338L339.389875,185.2416532630509L340.7923125,186.1401719063234L342.19475,186.66708119576097L343.5971875,187.15521392636208L344.999625,187.67828942711228L346.4020625,189.22182863522713L347.8045,188.5156390577526L349.2069375,190.84277640157634L350.609375,191.0861727106632L352.0118125,191.7805297648016L353.41425,193.66014017119198L354.8166875,194.37084588350464L356.219125,194.71479476658675L357.6215625,193.99650915200914L359.024,195.47518195180086L360.4264375,196.2939793603104L361.828875,198.52963874016655L363.2313125,198.75496540440946L364.63375,199.5702111179427L366.03618750000004,200.4654874001842L367.438625,200.8899613326946L368.8410625,202.10104300738496L370.24350000000004,202.7981032578776L371.6459375,204.13275234901604L373.048375,204.118742359929L374.45081250000004,203.54625403453622L375.85325,203.70687167819347L377.2556875,204.83589756198228L378.65812500000004,204.59764463608394L380.0605625,204.70065895294164L381.463,206.08580603356134L382.86543750000004,207.5595953484338L384.267875,207.54603479662495L385.6703125,208.9547818466967L387.07275000000004,209.27064664143404L388.47518750000006,209.22263005830573L389.877625,210.34365098441842L391.28006250000004,210.66450863090506L392.68250000000006,211.1340866664686L394.0849375,211.11022723742047L395.487375,212.39669042382118L396.88981249999995,212.21670700710263L398.29224999999997,212.45762340232966L399.6946875,212.1484028362185L401.09712499999995,213.56781369435595L402.49956249999997,213.24172669612216L403.902,213.4772455623951L405.30443749999995,213.8836820802068L406.70687499999997,214.21328787870263L408.1093125,214.48802095973292L409.51174999999995,216.22996171542619L410.91418749999997,215.60901588461462L412.316625,216.0691989681676L413.71906249999995,214.68114182549772L415.12149999999997,214.9655173915609L416.5239375,214.92310141151336L417.926375,216.29795330963887L419.32881249999997,216.48541753969977L420.73125,217.36714425063448L422.1336875,215.8060646682203L423.53612499999997,216.30442275146444L424.9385625,217.71936854713562L426.341,218.43610063198582L427.74343749999997,219.51540722931597L429.145875,219.95798611031105L430.5483125,220.0456340419187L431.95074999999997,220.14227161990635L433.3531875,220.06137503795327L434.755625,220.85918532041543L436.15806249999997,220.72803807606712L437.5605,221.78179066885917L438.9629375,222.18178681953557L440.36537500000003,221.20802390365154L441.7678125,221.73263440842996L443.17025,221.88780897458673L444.57268750000003,221.7796784688584L445.975125,222.62790700572268L447.3775625,223.23508937843695L448.78000000000003,223.31026033404245L450.1824375,223.28090995201052L451.584875,223.97838459221992L452.98731250000003,224.11236102107208L454.38975,223.98754673810276L455.7921875,223.30179669274145L457.19462500000003,223.9199727983785L458.5970625,223.52910059510148L459.9995,223.81631118092744L461.40193750000003,223.97523430295223L462.80437500000005,223.57041862880405L464.2068125,224.55475445324527L465.60925000000003,224.86655000163947L467.01168750000005,225.49901591155907L468.414125,225.27523380757845L469.81656250000003,225.91373139972055L471.21900000000005,226.40992531097825L472.6214375,226.57181782174789L474.02387500000003,227.62035029865325L475.42631250000005,227.69861503277048L476.82875,228.33317051963456L478.23118750000003,228.21567974896394L479.63362500000005,228.34527506634194L481.0360625,228.6855318932018L482.4385,229.25077677651547L483.84093749999994,228.62654302550644L485.24337499999996,229.1583210200463L486.6458125,229.4511512597924L488.04824999999994,228.82573109189224L489.45068749999996,228.4914790566933L490.853125,229.37000257071085L492.2555625,229.58743105369936L493.65799999999996,230.41269318065156L495.0604375,231.13092579575118L496.462875,232.5473609352396L497.86531249999996,232.979362818783L499.26775,233.67877165502534L500.6701875,234.4478219471801L502.07262499999996,234.67383839879028L503.4750625,234.84510103402928L504.8775,234.58660237489858L506.27993749999996,234.89332192253448L507.682375,234.6989635418187L509.0848125,235.0610530453965L510.48724999999996,234.6705397158151L511.8896875,234.40122182982918L513.2921249999999,235.00286872310588L514.6945625,236.4066636131018L516.097,236.50212925060578L517.4994375,237.36389212953745L518.901875,237.6442428365655L520.3043125,238.60465738058792L521.7067499999999,239.17963546801641L523.1091875,239.33692833426483L524.511625,239.40895928579428L525.9140625,240.4869327313317L527.3165,240.43781885901618L528.7189375,241.34787972440085L530.1213750000001,241.48411364024057L531.5238125,242.49783601760575L532.92625,243.2319755506952L534.3286875,243.3851664865903L535.731125,243.94560043094404L537.1335625,243.36997803010962L538.5360000000001,243.17856426363446L539.9384375,243.34766477344246L541.340875,244.27291178598958L542.7433125,244.69898521376268L544.14575,245.45216606099913L545.5481875,245.98598834035775L546.9506250000001,246.37042915475737L548.3530625,246.461323571731L549.7555,246.37772971372908L551.1579375,246.50825059066065L552.560375,246.38563692236073L553.9628125,245.794114802025L555.3652500000001,246.0681573678046L556.7676875000001,246.36715828590036L558.170125,246.60981849005276L559.5725625,246.61667733239582L560.975,246.60214589148197L562.3774375,247.00799800436212L563.7798750000001,246.18635239855195L565.1823125000001,245.92723226566955L566.58475,246.76155731085805L567.9871875,247.02788194154087L569.389625,247.33019272982926L570.7920624999999,247.91910318688682L572.1945,247.9125866264063L573.5969375,248.50338720748974L574.999375,248.33513266839685L576.4018125,247.84743901913404L577.80425,247.8812388132656L579.2066874999999,247.20681589463695L580.609125,246.31960449376965L582.0115625,246.99394605701505L583.414,247.78503132780222L584.8164375,248.18005052419568L586.218875,248.78112611729117L587.6213124999999,249.03384294039802L589.02375,249.41230524467687L590.4261875,249.17204240496127L591.828625,249.4013967980585L593.2310625,250.0058871641324L594.6335,250.62464213817086L596.0359374999999,250.1391596375315L597.438375,250.19604631689924L598.8408125,249.92574279658925L600.24325,249.51483912308754L601.6456875,250.16774030757756L603.048125,250.13197256655556L604.4505625,250.86791674442554L605.853,251.2280078979318L607.2554375,251.29932413309638L608.657875,251.74897955260988L610.0603125,252.32721488564164L611.46275,252.16275071321016L612.8651875,252.53167992204197L614.267625,252.02632277614114L615.6700625,252.37156794245053L617.0725,252.47261841281306L618.4749375,251.96649542308612L619.877375,251.90026053048618L621.2798125,252.5247364760989L622.68225,252.62078351027395L624.0846875,252.62777869498328L625.487125,252.8754320548302L626.8895625,253.02672767895004L628.292,253.1210843241804L629.6944375,253.30702269538753L631.0968750000001,253.55512117747224L632.4993125,254.34939307056203L633.90175,253.52522719348107L635.3041875,253.89528115576132L636.706625,253.9643254912116L638.1090625,254.60276186289857L639.5115000000001,255.46086276314446L640.9139375,255.01396301212736L642.316375,255.86133709536065L643.7188125,255.44246931858416L645.12125,255.34435723615982L646.5236875,255.36788721552293L647.9261250000001,254.8034396249648L649.3285625,255.5761041356843L650.731,255.9333144123813L652.1334375,255.76925119859078L653.535875,256.46478533911335L654.9383125,257.0465580705179L656.3407500000001,256.53996896908734L657.7431875,255.30740843915174L659.145625,255.47992927705496L660.5480625,255.2721681695138L661.9504999999999,255.6267910245204L663.3529374999999,255.63696438417313L664.755375,255.69920558829213L666.1578125,255.96817391485L667.56025,255.6276643483245L668.9626875,255.94542990036416L670.3651249999999,256.67740198523103L671.7675624999999,256.42883163014824L673.17,256.5405487065646L674.5724375,256.60984349473637L675.974875,257.3740186603868L677.3773125,256.97512988768887L678.77975,257.24354212620005L680.1821874999999,256.9715787986313L681.584625,256.818865457772L682.9870625,256.9401453601193L684.3895,256.912394498402L685.7919375,256.4987913336868L687.194375,256.9549086330169L688.5968124999999,257.26775118967674L689.99925,257.77410314165974L691.4016875,258.1721196522669L692.804125,258.1271762741379L694.2065625,258.2185654837644L695.609,258.6033655639479L697.0114374999999,258.6609505535839L698.413875,259.481028247558L699.8163125,259.37375895430233L701.21875,259.7191866896832L702.6211875,259.4736097881008L704.023625,258.6531778084801L705.4260625000001,258.68929147036624L706.8285,259.2811119110753L708.2309375,258.9589360510362L709.633375,259.5379317842536L711.0358125,259.83138060123434L712.43825,258.873237608247L713.8406875000001,259.06358863000577L715.243125,259.6486102857785L716.6455625,260.01381693466084L718.048,259.8814014949507L719.4504375,260.25784957171135L720.852875,260.4135030223748L722.2553125000001,260.06568424596816L723.65775,260.6222390385633L725.0601875,260.69247120682525L726.462625,260.66223857978827L727.8650625,261.3674338144687L729.2675,261.39146817786786L730.6699375000001,261.49838186748946L732.0723750000001,261.98991855333L733.4748125,262.06845365896226L734.87725,262.4662436290516L736.2796875,261.83226833180305L737.682125,262.0106214500571L739.0845625000001,262.2120990641054L740.4870000000001,262.88901132352476L741.8894375,263.59712759545454L743.291875,263.39178650728843L744.6943125,263.4066841332353L746.09675,263.44612983199096L747.4991875000001,263.8169762643527L748.9016250000001,263.2689068306464L750.3040625000001,262.65192972251384L751.7065,263.010413946316L753.1089375,263.3209444881807L754.511375,263.70297835496115L755.9138125000001,264.3560456128782L757.3162500000001,264.6188621873854L758.7186875000001,263.99683742170276L760.121125,263.8474027630302L761.5235625,264.2110801568178L762.926,264.35855248644503L764.3284375000001,264.63641636345113L765.7308750000001,264.74119814559407L767.1333125000001,264.66621895416284L768.53575,265.12879964888555L769.9381875,265.4308068698385L771.340625,265.5969149121198L772.7430625000001,265.5795408832117L774.1455000000001,265.3698848446466L775.5479375000001,265.7437293005349L776.9503750000001,265.83695269951625L778.3528125,265.4128656944538L779.75525,265.2620796800819L781.1576875000001,265.73105261467754L782.5601250000001,265.79762910219665L783.9625625000001,266.1093684460853L785.3650000000001,266.2935606437031L786.7674375,266.68973289253717L788.169875,266.96837172864446L789.5723125,266.641884459431L790.97475,266.5020405297087L792.3771874999999,265.9025153701651L793.7796249999999,266.4901198822281L795.1820624999999,266.4111014582422L796.5844999999999,266.20371266745576L797.9869375,266.2453517631713L799.389375,266.64752286259755L800.7918124999999,266.98080905528644L802.1942499999999,266.49767451222755L803.5966874999999,266.92519052461677L804.9991249999999,266.83589616251766L806.4015625,267.20650038271106L807.804,267.37737778102576L809.2064375,267.8839345924497L810.6088749999999,268.12730270585314L812.0113124999999,267.50885764629163L813.4137499999999,268.0261849834677L814.8161875,268.69057023634116L816.218625,269.09220630044973L817.6210625,269.55072156921784L819.0234999999999,269.7666381352795L820.4259374999999,270.23756538271994L821.8283749999999,270.5127960875892L823.2308125,270.5546948971753L824.63325,270.61054120385387L826.0356875,270.21274807369826L827.4381249999999,270.6564004990683L828.8405624999999,270.70527072290315L830.2429999999999,271.38560314821063L831.6454375,271.5770778232056L833.047875,271.72432084664547L834.4503125,272.234469692756L835.85275,272.1713660701838L837.2551874999999,272.3802550477793L838.6576249999999,272.4554116124403L840.0600625,272.63393905346715L841.4625,272.64492358314567L842.8649375,272.29223847352546L844.267375,272.55997685627307L845.6698124999999,272.8010673548234L847.0722499999999,272.3282147838633L848.4746875,272.1635799068618L849.877125,272.3007214777434L851.2795625,272.4488298850427L852.682,272.5496395646145L854.0844375,272.4178934696951L855.4868749999999,272.80493604968467L856.8893125,272.8983015138235L858.29175,273.24301503496594L859.6941875,273.642603485943L861.096625,273.4483578034444L862.4990625,273.42378528142643L863.9014999999999,273.97073962366665L865.3039375,274.10490667274695L866.706375,273.80365863855513L868.1088125,273.896848558868L869.51125,274.2930621258365L870.9136875,274.01945912808935L872.3161249999999,274.22339840076273L873.7185625,273.50932732016224L875.121,273.8633554302976L876.5234375,273.9800174071404L877.925875,273.6877321312701L879.3283125,273.8783589633174L880.7307500000001,274.43547760454805L882.1331875,274.65702371428983L883.535625,274.84976828569484L884.9380625,274.6110340601066L886.3405,274.57918692727213L887.7429375,274.6112589329729L889.1453750000001,274.66304630478584L890.5478125,275.23342471912486L891.95025,275.67849079712437L893.3526875,275.78496759926077L894.755125,276.23874908545844L896.1575625,276.42975598105784L897.5600000000001,276.87115471117795L898.9624375,276.96656443624147L900.364875,276.9335534122037L901.7673125,277.16214623588917L903.16975,277.5874673457425L904.5721875,277.6987919748097L905.9746250000001,277.9499307093554L907.3770625000001,277.92403788385667L908.7795,278.4171889565695L910.1819375,278.60786099069287L911.584375,278.8067239849634L912.9868125,278.5502855827926L914.3892500000001,278.8290225075664L915.7916875000001,279.0853465800483L917.194125,279.244474861992L918.5965625,279.46749612489185L919.999,279.56608056737645L921.4014375,279.9059459304551L922.8038750000001,279.59580058826475L924.2063125000001,280.08429130697704L925.6087500000001,280.45474295641833L927.0111875,280.69185602061884L928.413625,280.8576881388512L929.8160625,280.5545053499303L931.2185000000001,280.4277765751389L932.6209375000001,280.6245597444572L934.0233750000001,280.90151705505247L935.4258125,280.8649255966747L936.82825,281.21427062293367L938.2306875,281.0250933486317L939.6331250000001,280.9760835466677L941.0355625000001,281.4409701487123L942.4380000000001,281.1730745086769L943.8404375,281.2249568658419L945.242875,281.64628532961154L946.6453125,282.30475371383216L948.0477500000001,282.64176449715535L949.4501875000001,282.57237702763894L950.8526250000001,282.2288256767623L952.2550625000001,282.2571167103973L953.6575,282.7275631074775L955.0599375,283.2219924839401L956.4623750000001,283.668197474633L957.8648125000001,283.69157176329486L959.2672500000001,283.5720852913726L960.6696875000001,283.84634228294675L962.072125,283.9709701027172L963.4745625,284.2302971904252L964.877,284.5057647613289L966.2794375,284.98002567096347L967.6818749999999,285.13383560931186L969.0843124999999,285.09614165221035L970.4867499999999,285.49018864578875L971.8891874999999,285.7204211834853L973.291625,285.91806076159673L974.6940625,286.17883210890403L976.0964999999999,286.394730450656L977.4989374999999,286.788555058818L978.9013749999999,286.84841972379576L980.3038124999999,287.1697969282216L981.70625,287.397210731052L983.1086875,287.6312736131158L984.511125,287.7734839343257L985.9135624999999,288.07559278502856L987.3159999999999,287.10051361054354L988.7184374999999,287.2904693576158L990.120875,286.91986745241974L991.5233125,287.09219062093894L992.92575,287.06349565414047L994.3281874999999,287.3301315502176L995.7306249999999,287.43942695681375L997.1330624999999,287.5906667993624L998.5355,287.7315587429257L999.9379375,287.99157124803014L1001.340375,288.32354640721445L1002.7428124999999,287.8715350522952L1004.1452499999999,288.3309590706623L1005.5476874999999,288.0640485003666L1006.950125,288.40616038582505L1008.3525625,287.72675847624714L1009.755,287.91052049010614L1011.1574375,288.5019995648966L1012.5598749999999,289.0424674441019L1013.9623124999999,289.2370475194393L1015.36475,289.52908237120124L1016.7671875,289.70650732975514L1018.169625,289.38778678931794L1019.5720625,289.19862189364346L1020.9744999999999,289.1814370124986L1022.3769374999999,289.48861189905426L1023.779375,289.83857991547336L1025.1818125,289.9461699928785L1026.5842499999999,290.0044257462326L1027.9866875,290.1300720238872L1029.389125,290.3380451312804L1030.7915625,290.70608835781496L1032.194,291.0026652058055L1033.5964375,291.1960332408401L1034.998875,291.42397663995104L1036.4013125,291.26194271559376L1037.80375,291.51573293449303L1039.2061875,291.355680883394L1040.608625,291.2820220817373L1042.0110625,291.28294237614386L1043.4134999999999,290.8675165384411L1044.8159375,291.00551502935474L1046.218375,291.3598208155662L1047.6208125,291.62139726263007L1049.02325,291.9864002442451L1050.4256875,292.088378891153L1051.828125,292.30854399482473L1053.2305625,292.0799276548195L1054.633,291.68829187034225L1056.0354375,292.1918138196904L1057.437875,291.93965554917156L1058.8403125,291.69245053225194L1060.2427500000001,291.9223065568617L1061.6451875,292.3453578206303L1063.047625,292.743987089333L1064.4500625,292.8320389221725L1065.8525,292.8526996502502L1067.2549375,293.178169305289L1068.657375,293.43714139706054L1070.0598125,293.7499576603372L1071.46225,293.77671646149025L1072.8646875,294.28533237724815L1074.267125,294.4981308769608L1075.6695625,294.63223251161355L1077.0720000000001,295.01233275941L1078.4744375,295.2633819832985L1079.876875,295.44082389166283L1081.2793125,295.4435270397679L1082.68175,295.25070173877884L1084.0841875,295.4546843468405L1085.486625,295.4988192317026L1086.8890625000001,295.2990036591827L1088.2915,295.81478696719074L1089.6939375,295.90613809086886L1091.096375,295.12703436272744L1092.4988125,295.41829358230467L1093.9012500000001,295.5750284573622L1095.3036875,295.54569265097666L1096.706125,295.39226792765476L1098.1085625,295.37589579898537L1099.511,295.7139766421044L1100.9134375,296.07617364736467L1102.315875,296.183381584144L1103.7183125000001,296.48832624043416L1105.12075,297.04641023124344L1106.5231875,297.21811426906993L1107.925625,297.6767866689894L1109.3280625,298.0562933206934L1110.7305000000001,297.7895198759236L1112.1329375,297.89866713210756L1113.5353750000002,298.09389066960006L1114.9378125,298.0353352903971L1116.34025,298.33915542637385L1117.7426875,298.80977076444054L1119.145125,299.1003046259972L1120.5475625000001,298.96583475760866L1121.95,299.15515884330097L1123.3524375,299.48819213127894L1124.754875,299.32407778302314L1126.1573125,299.22209213513827L1127.5597500000001,299.49529066887254L1128.9621875,299.7899365051775L1130.3646250000002,299.7875995874523L1131.7670625,299.7652579775745L1133.1695,299.89245012462584L1134.5719375,300.05544618902474L1135.974375,300.4443488946045L1137.3768125000001,300.12293816989245L1138.77925,300.1651753590692L1140.1816875,299.8927855551616L1141.5841249999999,300.23665678820225L1142.9865625,300.03831343305785L1144.389,300.1645821893848L1145.7914375,299.58443235752014L1147.193875,299.74057971282406L1148.5963124999998,300.01311431606274L1149.99875,300.3663873274288L1151.4011874999999,300.4406306110606L1152.803625,300.58230365524673L1154.2060625,300.712035546504L1155.6085,300.78163399604637L1157.0109375,300.8235902788164L1158.4133749999999,300.7522324734883L1159.8158125,300.9969072997658L1161.21825,301.3368605431598L1162.6206875,301.12959487502906L1164.023125,301.3686900180769L1165.4255624999998,301.5884881175461L1166.828,301.73741754554334L1168.2304374999999,302.18352938439153L1169.632875,302.1195945970177L1171.0353125,301.69968668753705L1172.43775,301.82766888222443L1173.8401875,301.55061242813673L1175.2426249999999,301.5317427742257L1176.6450625,300.4119244841581L1178.0475,300.559302438641L1179.4499375,300.60682532326354L1180.852375,300.6548191614894L1182.2548125,300.97082100999535L1183.65725,301.2292034343385L1185.0596874999999,301.17217052025876L1186.462125,300.85398073727293L1187.8645625,300.97261834875246L1189.267,300.95285571894857L1190.6694375,300.93848971976337L1192.0718749999999,301.20649977455946L1193.4743125,301.2518635536239L1194.87675,301.78455715341084L1196.2791875,301.7435905761876L1197.681625,301.8418702307794L1199.0840625,302.1213166696098L1200.4865,302.11520253257L1201.8889374999999,302.48611752606394L1203.291375,302.6040727592063L1204.6938125,302.36079343130024L1206.09625,302.60600862048807L1207.4986875,302.84277927460977L1208.901125,301.7145174489191L1210.3035625,301.92190400008786L1211.706,302.2101175201163L1213.1084375,302.213289666721L1214.510875,302.4335303527985L1215.9133125,302.57397130339365L1217.31575,302.9866337867502L1218.7181874999999,303.05471341284L1220.120625,303.1977767961065L1221.5230625,302.65894949296415L1222.9255,302.6727565821831L1224.3279375,302.9309177962754L1225.730375,302.6566255423974L1227.1328125,302.65396119439794L1228.53525,302.7494535126941L1229.9376875,302.84552142341266L1231.340125,302.85759353473753L1232.7425625,303.03692814874387L1234.145,302.6098587232326L1235.5474375000001,302.5814081750113L1236.949875,302.5815036570652L1238.3523125,302.5798474672035L1239.75475,302.8469252079203L1241.1571875,302.7913350182729L1242.559625,303.2044259312052L1243.9620625,303.6563866091112L1245.3645,303.6133791956138L1246.7669375,303.75709256133086L1248.169375,303.8916423289441L1249.5718125,304.1790343105519" style="fill: none;" fill="none"></path></g></g></g></g><g opacity="0.2"><g><g><g><path stroke="rgb(255, 112, 67)" stroke-width="2px" d="M143.048625,-309.6525817284219L144.4510625,43.44725814232448L145.8535,-180.8702822465164L147.2559375,2.122614053579361L148.658375,-172.54326614966772L150.0608125,70.13494403545663L151.46325,50.076371559729864L152.8656875,13.544149985680127L154.268125,14.840384850135136L155.6705625,98.87367307222797L157.073,-254.65736697270336L158.4754375,41.73424265934862L159.87787500000002,-39.306017215435425L161.2803125,254.31578988295328L162.68275,-55.83041205773L164.08518750000002,233.8290675236628L165.48762499999998,180.06048554640543L166.8900625,31.70017301119282L168.2925,157.0812598008375L169.6949375,-45.1707555330718L171.097375,197.32873535156241L172.4998125,144.75947218674872L173.90225,112.32434551532445L175.3046875,265.1810637253981L176.707125,-600.3691256596493L178.1095625,-238.48791503906267L179.512,338.07912738506604L180.9144375,263.86264492915217L182.316875,156.09698647719156L183.7193125,374.22132770831763L185.12175000000002,298.466944181002L186.5241875,197.60742099468519L187.926625,176.5860658792348L189.32906250000002,162.87792117779063L190.7315,-24.9646599109357L192.1339375,220.57035541534415L193.53637500000002,-89.62222480773934L194.9388125,201.4210468438955L196.34125000000003,274.1801143059363L197.7436875,323.24223650418793L199.14612499999998,196.8492158009455L200.54856249999997,291.2803901525644L201.951,143.49637457040632L203.35343749999998,-8.042618091289917L204.75587499999997,176.75507970956647L206.1583125,247.11855983734122L207.56074999999998,-352.6088540003851L208.9631875,454.1148169590876L210.365625,344.80695929894074L211.76806249999998,166.28398660513065L213.1705,-217.54406503530657L214.5729375,72.76138290992141L215.97537499999999,265.5046025056105L217.3778125,468.0222704227154L220.18268750000001,381.9796725786649L221.585125,306.0868474520169L222.9875625,249.6618782923771L224.39000000000001,289.4816199082594L225.7924375,376.8223937107966L227.194875,278.60830439054047L228.59731250000002,4.881879219641929L229.99975,293.01746133657593L231.40218750000003,430.31270599365234L232.80462500000002,358.673996411837L234.2070625,19.666915159958968L235.60950000000003,102.67932657095095L237.01193750000002,287.31785466120783L238.414375,444.02653532761786L239.81681250000003,207.2362179389366L241.21925,131.34609647897565L242.62168749999998,-25.195234151987044L244.02412499999997,275.7177380781907L245.4265625,301.93214365152204L246.82899999999998,63.93869458712056L248.2314375,256.7180323967566L249.633875,426.41457322927613L251.03631249999998,383.2156642033503L252.43875,161.009479522705L253.8411875,217.97559796846826L255.24362499999998,40.882934276874145L256.64606249999997,409.8919115066528L258.0485,507.53122901916504L259.4509375,117.26706416790292L260.85337499999997,50.13820926959687L262.2558125,445.92977802570044L263.65825,172.0016177250788L265.06068750000003,159.57667482816248L266.463125,-54.329946371225326L267.8655625,266.79466746403614L269.26800000000003,230.5928478240966L270.6704375,512.9355121025673L272.072875,355.6158027648925L273.47531250000003,252.96652155656074L274.87775,309.1081603123591L276.2801875,375.78328448075507L277.68262500000003,326.7120807354266L279.0850625,445.68658667344306L280.4875,10.606858766995831L281.88993750000003,302.4578335101787L283.292375,103.0984642322246L284.6948125,362.7850255966186L286.09725,306.27055813716L287.4996875,188.9289282285249L288.902125,438.04422217148993L290.3045625,240.55287859990037L291.707,247.6972138331486L293.1094375,471.78411065615137L294.511875,183.00845278226404L295.9143125,225.8044461470383L297.31675,288.50441771287177L298.7191875,50.738700573260864L300.121625,152.73930975107038L301.5240625,340.4861533091618L302.9265,-2.0951059781589203L304.3289375,268.47676409207855L305.731375,157.10067074115452L307.1338125,279.5326810983511L308.53625,392.3316656992985L312.7435625,378.87454605102533L314.146,117.40515914330108L315.54843750000003,33.154052440936645L316.950875,226.6808501023512L318.3533125,287.4870764659001L319.75575000000003,310.5266841008112L321.1581875,325.3028464684119L322.560625,293.7887689150296L323.96306250000004,291.66361757425153L325.3655,-17.06690289424025L326.7679375,12.84632668128371L328.17037500000004,290.5553915317241L329.5728125,-17.564516214224145L330.97524999999996,327.61732380206763L332.3776875,43.05501849834726L333.780125,414.346237035898L335.18256249999996,265.22127210176905L336.585,185.8785682824941L337.9874375,-98.5724707383377L339.389875,525.9442390295175L340.7923125,305.02132547818695L342.19475,256.83803360278785L343.5971875,252.5847499553973L344.999625,258.2440096048208L346.4020625,398.7873978248009L347.8045,92.02701847369843L349.2069375,510.81278712932874L350.609375,224.76166270329392L352.0118125,288.4470167893629L353.41425,456.9504087154681L354.8166875,294.5348422710711L356.219125,243.48469316042383L357.6215625,91.53217814518847L359.024,407.6759446951059L360.4264375,314.49809316488404L361.828875,523.1869842822736L363.2313125,231.66876851595362L364.63375,319.34971904754633L366.03618750000004,332.76628369551435L367.438625,263.97855597275947L368.8410625,383.1312266129713L370.24350000000004,307.58551069406354L371.6459375,405.9000516304602L373.048375,201.98888617295478L374.45081250000004,116.02933942354633L375.85325,228.39656925201407L377.2556875,379.3409632169283L378.65812500000004,167.57148654644297L380.0605625,220.79670084439783L381.463,423.683107302739L382.86543750000004,440.3227892655592L384.267875,205.3929411814762L385.6703125,433.8140236781193L387.07275000000004,259.9530042501596L388.47518750000006,201.47782384432276L389.877625,392.097139945397L391.28006250000004,262.95435157188996L392.68250000000006,288.0533213248619L394.0849375,207.18200595562269L395.487375,425.2736258873572L396.88981249999995,182.2840087597186L398.29224999999997,252.72457805046662L399.6946875,160.20780768761261L401.09712499999995,453.1695734904362L402.49956249999997,157.9263289524958L403.902,253.6245524333073L405.30443749999995,283.5029116410475L406.70687499999997,270.944865153386L408.1093125,262.0021062997671L409.51174999999995,518.9312049425565L410.91418749999997,107.19334074167095L412.316625,296.7954542453472L413.71906249999995,-29.95784700833847L415.12149999999997,265.3194359999436L416.5239375,207.3777098288902L417.926375,461.9996795654297L419.32881249999997,250.1411898686335L420.73125,376.3875886476957L422.1336875,-67.01444127009474L423.53612499999997,306.99943894606366L424.9385625,476.3780563061053L426.341,350.0430604494535L427.74343749999997,418.57865392244776L429.145875,301.9460779336782L430.5483125,236.3538069358238L431.95074999999997,238.20165912921604L433.3531875,204.87792733999393L434.755625,371.247155703031L436.15806249999997,195.90036744337806L437.5605,422.1223983764648L438.9629375,298.5530455662653L440.36537500000003,34.50061710064218L441.7678125,322.7439299363356L443.17025,251.8910861382117L444.57268750000003,200.7853385485135L445.975125,388.0004609914926L447.3775625,342.1009355691763L448.78000000000003,238.08657998305094L450.1824375,217.48796741779026L451.584875,362.1994391221266L452.98731250000003,250.77024298447822L454.38975,199.05284280043372L455.7921875,85.75839394789466L457.19462500000003,348.4033905909611L458.5970625,144.50657536433286L459.9995,282.11045397244965L461.40193750000003,256.35782080430243L462.80437500000005,140.76220497718214L464.2068125,426.6903472313513L465.60925000000003,289.14192845271174L467.01168750000005,356.3807324629563L468.414125,178.78879165649406L469.81656250000003,359.05458949162403L471.21900000000005,330.26955149723926L472.6214375,260.58580090449396L474.02387500000003,448.7465827648455L475.42631250000005,244.2656368842491L476.82875,363.15501198401813L478.23118750000003,203.16040574587305L479.63362500000005,256.0837105971116L481.0360625,301.78080764183625L482.4385,351.1221007567185L483.84093749999994,93.54772699796229L485.24337499999996,344.6466803917517L486.6458125,293.27521089407105L488.04824999999994,92.02327493520876L489.45068749999996,155.11742723905115L490.853125,422.9057684678297L492.2555625,277.65550452012275L493.65799999999996,413.49978138850275L496.462875,548.9885607499342L497.86531249999996,329.82656610929047L499.26775,391.01581192016596L500.6701875,408.0464856808001L502.07262499999996,285.86758012038007L503.4750625,273.7691569695105L504.8775,175.6363162994384L506.27993749999996,305.07678530766407L507.682375,190.07625345083378L509.0848125,318.471720622136L510.48724999999996,144.4120163550743L511.8896875,171.94754439133857L513.2921249999999,374.98376171405494L514.6945625,564.093391931974L516.097,258.85968303680414L517.4994375,439.84333903972913L518.901875,303.7295274000901L520.3043125,465.73011567042414L521.7067499999999,375.59284929128785L523.1091875,276.7743864793043L524.511625,256.60794463524445L525.9140625,498.6964781834528L527.3165,228.63615571535547L528.7189375,460.7185575045072L530.1213750000001,274.42663324796234L531.5238125,488.39211119138275L532.92625,421.8643715198223L534.3286875,280.775674526508L535.731125,381.15817385453437L537.1335625,102.00465774536124L538.5360000000001,196.0256373332096L539.9384375,285.131212234497L541.340875,473.59064527658313L542.7433125,350.61914942814747L544.14575,433.2551272465632L545.5481875,379.4928538249089L546.9506250000001,342.80548337789673L548.3530625,269.32973626943726L549.7555,225.28360902346094L551.1579375,279.5414160214937L552.560375,215.26222581129798L553.9628125,95.20542130103469L555.3652500000001,316.0374500568096L556.7676875000001,322.9312455103947L558.170125,308.9272226186899L559.5725625,248.38318259899427L560.975,242.84877689068128L562.3774375,352.1373622600848L563.7798750000001,32.74448160024778L565.1823125000001,178.42310340587903L566.58475,464.7301056201641L567.9871875,316.80203313093915L569.389625,326.7551314280583L570.7920624999999,403.0748585921067L572.1945,246.1909248645488L573.5969375,405.0257967435396L574.999375,203.63548851013175L576.4018125,117.92578829251795L577.80425,256.91027003068183L579.2066874999999,66.55279364952666L580.609125,8.018409875722917L582.0115625,428.61175302358765L583.414,461.42220409099866L584.8164375,355.1452261117788L586.218875,411.98094463348383L587.6213124999999,317.83358595921436L589.02375,352.7201064183161L590.4261875,183.4137254861684L591.828625,312.3404978238619L593.2310625,416.32726214482227L594.6335,421.31871612255384L596.0359374999999,115.85949369577251L597.438375,265.9714356202345L598.8408125,174.7721135066105L600.24325,134.97330797635584L601.6456875,432.63758204533497L603.048125,240.11003186152524L604.4505625,457.60476537851184L605.853,352.64114548609797L607.2554375,271.4354073451115L608.657875,379.0310814197246L610.0603125,416.4198800600492L611.46275,205.37318361722498L612.8651875,357.7545417638925L614.267625,107.53192300062904L615.6700625,351.3320855360764L617.0725,281.5095467200645L618.4749375,106.17149338355422L619.877375,232.773389669565L621.2798125,433.3002576828003L622.68225,280.4929680457481L624.0846875,254.66269111633292L625.487125,325.0936242617093L626.8895625,297.2530671633206L628.292,280.76985124441285L629.6944375,307.92270645728473L631.0968750000001,326.60407271751984L632.4993125,488.7706938523512L633.90175,9.700922452486381L635.3041875,363.633630312406L636.706625,274.487708385174L638.1090625,444.8255728208101L639.5115000000001,511.73452949523926L640.9139375,121.23341252253599L642.316375,510.11773681640625L643.7188125,129.4675334050104L645.12125,225.76853590745185L646.5236875,262.47739703838636L647.9261250000001,83.86402482252845L649.3285625,490.11060333251953L650.731,364.60930736248304L652.1334375,205.74143688495334L653.535875,469.03683867821326L654.9383125,435.25376085134644L656.3407500000001,101.01192679772002L657.7431875,-123.95421629685632L659.145625,308.68423924079303L660.5480625,191.05650593684263L661.9504999999999,365.47974938612714L663.3529374999999,258.79541895939747L664.755375,275.0656691331129L666.1578125,339.8431659111609L667.56025,149.20929160484894L668.9626875,355.473825601431L670.3651249999999,486.4427675100473L671.7675624999999,178.2325295668381L673.17,291.7614348484919L674.5724375,278.50369328718915L675.974875,499.33891098315894L677.3773125,130.40064503596372L678.77975,342.59847956437324L680.1821874999999,170.3021899003248L681.584625,208.0482191672691L682.9870625,295.7546118956345L684.3895,248.01215633979206L685.7919375,123.56771674522979L687.194375,403.85899125612696L688.5968124999999,358.2383594512939L689.99925,421.54270450885474L691.4016875,387.17085126730103L692.804125,243.53051684452927L694.2065625,287.96146598229035L695.609,384.09692089374244L697.0114374999999,277.4796968606802L698.413875,528.0332721563485L699.8163125,224.17406580998338L701.21875,373.3006945389967L702.6211875,178.55988121032706L704.023625,-12.215554310725395L705.4260625000001,270.6365085014929L706.8285,455.46415461026703L708.2309375,151.9455409416785L709.633375,452.24228514157807L711.0358125,357.69402122497553L712.43825,-61.29681015014657L713.8406875000001,322.7972406974205L715.243125,455.9151123487032L716.6455625,382.7778088496281L718.048,215.28226067469663L719.4504375,387.2994487469012L720.852875,313.04553090609033L722.2553125000001,142.22578987708448L723.65775,449.548670548659L725.0601875,284.57959490555976L726.462625,250.3597015967735L727.8650625,502.14483173076917L729.2675,269.61341329721296L730.6699375000001,298.1428508024949L732.0723750000001,430.7857783390925L733.4748125,289.0892416147085L734.87725,399.5903868308434L736.2796875,42.87671514657818L737.682125,323.7248756702129L739.0845625000001,332.05951749361475L740.4870000000001,497.99969475085913L741.8894375,510.00730243095984L743.291875,191.80354983990003L744.6943125,268.61014498197113L746.09675,277.2493999187762L747.4991875000001,393.8283185225266L748.9016250000001,70.77134557870708L750.3040625000001,45.55237461970395L751.7065,389.3844610360952L753.1089375,372.99095139136676L754.511375,398.87252866304834L755.9138125000001,495.84279265770544L757.3162500000001,357.9464327738835L758.7186875000001,42.711999453030984L760.121125,210.59001247699436L761.5235625,394.05667437039887L762.926,317.1060223212608L764.3284375000001,364.20015247051526L765.7308750000001,302.35356903076166L767.1333125000001,237.7037685100848L768.53575,431.76817989349365L769.9381875,374.4183487525352L771.340625,325.6475293086125L772.7430625000001,259.2874862964336L774.1455000000001,189.3088280604435L775.5479375000001,401.6085007007305L776.9503750000001,299.7760041310236L778.3528125,110.74984095646776L779.75525,210.1753116020789L781.1576875000001,437.3584613800049L782.5601250000001,290.20440013592054L783.9625625000001,380.58936397845923L785.3650000000001,334.05080267099225L786.7674375,412.6763415703406L788.169875,369.820451589731L789.5723125,145.92218751173743L790.97475,214.7063103455763L792.3771874999999,43.47207641601554L793.7796249999999,484.8668764554537L795.1820624999999,236.9951998637272L796.5844999999999,188.86986351013175L797.9869375,281.7983537820669L799.389375,417.11770336444556L800.7918124999999,391.88632326859687L802.1942499999999,85.13197517395011L803.5966874999999,427.6786413926344L804.9991249999999,233.20403524545515L806.4015625,407.02165735684906L807.804,331.9492910825289L809.2064375,459.61851178682764L810.6088749999999,360.39449897179236L812.0113124999999,32.65685506967388L813.4137499999999,464.7994997317974L817.6210625,444.80408213688776L819.0234999999999,352.4272785186767L820.4259374999999,450.8156503530649L821.8283749999999,376.22003063788776L823.2308125,286.6724408956674L824.63325,292.1279549965491L826.0356875,116.70012606107264L827.4381249999999,442.1386134074284L828.8405624999999,289.6247062683105L830.2429999999999,535.1832226973313L831.6454375,345.9380625211275L833.047875,328.9974416586069L834.4503125,470.9782793338482L835.85275,247.54899743887088L837.2551874999999,354.0137069408709L838.6576249999999,301.8721777108999L840.0600625,342.6192076756403L841.4625,276.9576812157263L842.8649375,133.60677777803852L844.267375,378.0042426769549L845.6698124999999,367.8964114555945L847.0722499999999,85.53114729661198L848.4746875,207.02630248436554L849.877125,326.6431025725144L851.2795625,331.22609490614667L852.682,312.6169650738055L854.0844375,219.97547941941474L855.4868749999999,427.1024137643667L856.8893125,310.1752074314997L858.29175,411.07937578054566L859.6941875,433.66053860004126L861.096625,195.54507791079004L862.4990625,263.5541496276855L863.9014999999999,493.9835018744835L865.3039375,328.1537590026855L866.706375,152.26706930307233L868.1088125,311.54922470679645L869.51125,434.6145863166222L870.9136875,163.14773324819706L872.3161249999999,356.9864924504206L873.7185625,-16.700174771822486L875.121,417.95563206305866L876.5234375,321.5314394143911L877.925875,154.3793955582838L879.3283125,351.8032167874849L880.7307500000001,502.50448872492854L882.1331875,365.482522377601L883.535625,353.9812629406268L884.9380625,176.45795367314255L886.3405,261.4668496205256L887.7429375,287.83501757108246L889.1453750000001,296.04612262432386L890.5478125,511.0777464646559L891.95025,459.9683246612549L893.3526875,319.9364147186279L894.755125,464.66799061114966L896.1575625,355.8553892282339L897.5600000000001,460.6736350426306L898.9624375,316.7516340109018L900.364875,263.1490155733548L901.7673125,372.7494238339937L903.16975,455.6847460820124L904.5721875,324.37902435889606L905.9746250000001,383.4020785551804L907.3770625000001,267.0367496197039L908.7795,486.0602333362286L910.1819375,359.0012094057523L911.584375,362.76845697256226L912.9868125,170.13178957425623L914.3892500000001,396.8356277759258L915.7916875000001,387.75075310927167L917.194125,346.7964420318603L918.5965625,374.2709642556997L919.999,321.5296369699331L921.4014375,424.7682481912466L922.8038750000001,147.22355241041907L924.2063125000001,488.85513144273017L927.0111875,382.3000224186823L928.413625,352.01500401130085L929.8160625,150.28826258732713L931.2185000000001,225.9050364127525L932.6209375000001,365.3988473598773L934.0233750000001,400.37223177689765L935.4258125,265.05974534841675L936.82825,432.3071801112248L938.2306875,199.09811188624448L939.6331250000001,259.7236778552715L941.0355625000001,483.2952835376446L942.4380000000001,164.7011630718524L943.8404375,303.81091469984784L945.242875,465.3007872654841L948.0477500000001,429.9220608197725L949.4501875000001,252.20970285855802L950.8526250000001,131.70422832782444L952.2550625000001,294.6685004601111L953.6575,489.3777710107656L956.4623750000001,480.16929024916425L957.8648125000001,293.9982684208796L959.2672500000001,230.81884662921604L960.6696875000001,405.08361361576954L962.072125,339.1330027947058L963.4745625,399.1564136651846L966.2794375,495.68542539156397L967.6818749999999,353.5540836040789L969.0843124999999,268.30761161217316L970.4867499999999,461.21312053386976L971.8891874999999,388.518594448383L973.291625,374.2727667001577L974.6940625,402.9005067531878L977.4989374999999,463.49917470491846L978.9013749999999,313.74286893697877L980.3038124999999,431.7265156965989L983.1086875,393.1706342697143L984.511125,351.97431036142194L985.9135624999999,424.6280041474562L987.3159999999999,-154.16609705411483L988.7184374999999,373.35767951378455L990.120875,118.80122170081496L991.5233125,365.35829235957215L992.92575,274.01512131324176L994.3281874999999,408.72177842947144L995.7306249999999,337.25790596008295L997.1330624999999,356.61019750741804L998.5355,352.10519555898804L999.9379375,406.9324363561777L1001.340375,440.3629976419302L1002.7428124999999,80.61283096900344L1004.1452499999999,499.23686489692096L1005.5476874999999,165.39039010267985L1006.950125,445.8273159907414L1008.3525625,-25.262895143949166L1009.755,372.66567949148316L1011.1574375,561.6234884262085L1015.36475,424.84935819185694L1016.7671875,372.01499704214234L1018.169625,141.36089383638813L1019.5720625,201.24156497074998L1020.9744999999999,281.18170980306763L1022.3769374999999,432.64534642146174L1023.779375,453.1252749516413L1025.1818125,340.20240695659925L1026.5842499999999,317.2471675872802L1027.9866875,348.9541066976694L1029.389125,387.8155717849731L1034.998875,398.74441645695606L1036.4013125,214.88745601360608L1037.80375,411.2733465341421L1039.2061875,215.74652877220734L1040.608625,256.4465565314659L1042.0110625,291.71866145500763L1043.4134999999999,93.96325977031991L1044.8159375,356.4867300620445L1046.218375,459.6661379153912L1049.02325,465.75652841421265L1050.4256875,340.69156265258783L1051.828125,397.35459313025837L1053.2305625,182.8822816702035L1054.633,104.42090386610755L1056.0354375,533.2217471782977L1057.437875,171.10330713712244L1058.8403125,173.10124749403727L1060.2427500000001,402.31006754361664L1063.047625,484.5980349320631L1064.4500625,335.2555981415968L1065.8525,302.81776780348554L1067.2549375,450.32663330664997L1070.0598125,445.1116762161255L1071.46225,306.7382231492262L1072.8646875,540.9119457831749L1074.267125,397.79300308227533L1075.6695625,359.7956021382258L1077.0720000000001,479.9076585036057L1079.876875,381.93717648432795L1081.2793125,296.76259429638196L1082.68175,201.0583395591148L1084.0841875,395.20136525080744L1085.486625,317.1031106802133L1086.8890625000001,197.38627492464502L1088.2915,548.8191309708815L1089.6939375,340.7625512343186L1091.096375,-87.83433855496934L1092.4988125,438.73192405700684L1093.9012500000001,372.77562860342164L1095.3036875,281.081327511714L1096.706125,219.66677614358747L1098.1085625,287.2868664814875L1099.511,462.9213526065533L1100.9134375,475.3935750080988L1102.315875,349.3141796405498L1103.7183125000001,447.7682713728684L1109.3280625,487.08797330122724L1110.7305000000001,164.77644979036762L1112.1329375,352.3740370823786L1113.5353750000002,395.6275047155527L1114.9378125,268.7518448462852L1116.34025,450.430897786067L1119.145125,444.83042555588935L1120.5475625000001,231.4496328647319L1121.95,394.30728347484876L1123.3524375,467.03224314176117L1124.754875,216.67922445443952L1126.1573125,247.81354082547696L1127.5597500000001,437.3434179012591L1128.9621875,448.60543749882623L1130.3646250000002,298.60614835298975L1131.7670625,288.4592179518479L1133.1695,364.3211242235624L1134.5719375,382.70071968665485L1135.974375,497.82430304013764L1137.3768125000001,136.83925393911503L1138.77925,321.64332962036127L1140.1816875,161.24546109713032L1141.5841249999999,475.4367643503042L1142.9865625,198.88660196157596L1144.389,364.6212312258207L1145.7914375,3.150839292085991L1147.193875,379.60190171461835L1149.99875,481.39162489084094L1151.4011874999999,338.52072627727796L1152.803625,373.3166392399714L1154.2060625,367.3788325969989L1155.6085,336.58074144216675L1157.0109375,322.4248279424814L1158.4133749999999,263.9790412462674L1159.8158125,427.20480647453894L1161.21825,476.8554267883301L1162.6206875,194.01785285656263L1164.023125,425.0447154411902L1168.2304374999999,533.5865342066838L1169.632875,268.92522613818824L1171.0353125,83.4857887854942L1172.43775,368.3976296644944L1173.8401875,157.30698130680955L1175.2426249999999,291.698626591609L1176.6450625,-283.6688197209286L1178.0475,377.4998355278601L1179.4499375,325.43941629849945L1180.852375,325.7563692239614L1182.2548125,466.39528700021594L1183.65725,436.61321992140546L1185.0596874999999,271.26167942927424L1186.462125,133.8306968395526L1187.8645625,363.3037829765906L1189.267,290.5603829163771L1190.6694375,293.37711833073536L1192.0718749999999,442.397056212792L1193.4743125,325.17140667255103L1194.87675,582.9160421078021L1196.2791875,280.1039866667527L1197.681625,353.80198904184186L1199.0840625,449.99512217595026L1200.4865,298.87693097041193L1201.8889374999999,499.110416485713L1203.291375,365.18816933265094L1204.6938125,173.1689084859994L1206.09625,432.94067001342773L1211.706,455.9370189813467L1213.1084375,303.9067215552696L1214.510875,420.1101771134596L1215.9133125,377.6781388796293L1217.31575,523.8593653898972L1218.7181874999999,339.5251037891094L1220.120625,379.90339521261353L1221.5230625,13.509071643535801L1222.9255,310.0884127983679L1224.3279375,441.7060960622934L1225.730375,155.0835967430701L1227.1328125,301.21927686837995L1228.53525,354.21363962613617L1229.9376875,354.6641120910644L1231.340125,309.37478344257056L1232.7425625,399.93396047445435L1234.145,71.66230773925773L1235.5474375000001,287.1830872755784L1236.949875,302.6332252209002L1238.3523125,301.6819504957932L1239.75475,447.76411188565766L1241.1571875,272.60255945645844L1242.559625,527.7256780771108L1243.9620625,549.5098138222328L1245.3645,280.19903094951917L1246.7669375,382.06369422032276L1248.169375,377.2662803209745L1249.5718125,461.0341932590191" style="fill: none;" fill="none"></path></g></g></g></g></g></g><g transform="translate(51, 378)" clip-path="url(#clip_1)"><clipPath id="clip_1"><rect width="1402" height="22"></rect></clipPath><g><g><line x1="0" y1="0" x2="0" y2="5" style="visibility: inherit;" fill="rgb(0, 0, 0)" stroke="rgb(204, 204, 204)" stroke-width="1px"></line><line x1="140.24375" y1="0" x2="140.24375" y2="5" style="visibility: inherit;" fill="rgb(0, 0, 0)" stroke="rgb(204, 204, 204)" stroke-width="1px"></line><line x1="280.4875" y1="0" x2="280.4875" y2="5" style="visibility: inherit;" fill="rgb(0, 0, 0)" stroke="rgb(204, 204, 204)" stroke-width="1px"></line><line x1="420.73125" y1="0" x2="420.73125" y2="5" style="visibility: inherit;" fill="rgb(0, 0, 0)" stroke="rgb(204, 204, 204)" stroke-width="1px"></line><line x1="560.975" y1="0" x2="560.975" y2="5" style="visibility: inherit;" fill="rgb(0, 0, 0)" stroke="rgb(204, 204, 204)" stroke-width="1px"></line><line x1="701.21875" y1="0" x2="701.21875" y2="5" style="visibility: inherit;" fill="rgb(0, 0, 0)" stroke="rgb(204, 204, 204)" stroke-width="1px"></line><line x1="841.4625" y1="0" x2="841.4625" y2="5" style="visibility: inherit;" fill="rgb(0, 0, 0)" stroke="rgb(204, 204, 204)" stroke-width="1px"></line><line x1="981.70625" y1="0" x2="981.70625" y2="5" style="visibility: inherit;" fill="rgb(0, 0, 0)" stroke="rgb(204, 204, 204)" stroke-width="1px"></line><line x1="1121.95" y1="0" x2="1121.95" y2="5" style="visibility: inherit;" fill="rgb(0, 0, 0)" stroke="rgb(204, 204, 204)" stroke-width="1px"></line><line x1="1262.1937500000001" y1="0" x2="1262.1937500000001" y2="5" style="visibility: inherit;" fill="rgb(0, 0, 0)" stroke="rgb(204, 204, 204)" stroke-width="1px"></line><line x1="1402.4375" y1="0" x2="1402.4375" y2="5" style="visibility: inherit;" fill="rgb(0, 0, 0)" stroke="rgb(204, 204, 204)" stroke-width="1px"></line></g><g transform="translate(0, 8)"><text x="0" y="0" dx="0em" dy="0.95em" style="text-anchor: middle; visibility: hidden; font-family: Roboto, sans-serif; font-size: 12px; font-weight: 200;" fill="rgb(50, 49, 63)" stroke="none" stroke-width="1px">-1k</text><text x="140.24375" y="0" dx="0em" dy="0.95em" style="text-anchor: middle; visibility: inherit; font-family: Roboto, sans-serif; font-size: 12px; font-weight: 200;" fill="rgb(50, 49, 63)" stroke="none" stroke-width="1px">0</text><text x="280.4875" y="0" dx="0em" dy="0.95em" style="text-anchor: middle; visibility: inherit; font-family: Roboto, sans-serif; font-size: 12px; font-weight: 200;" fill="rgb(50, 49, 63)" stroke="none" stroke-width="1px">1k</text><text x="420.73125" y="0" dx="0em" dy="0.95em" style="text-anchor: middle; visibility: inherit; font-family: Roboto, sans-serif; font-size: 12px; font-weight: 200;" fill="rgb(50, 49, 63)" stroke="none" stroke-width="1px">2k</text><text x="560.975" y="0" dx="0em" dy="0.95em" style="text-anchor: middle; visibility: inherit; font-family: Roboto, sans-serif; font-size: 12px; font-weight: 200;" fill="rgb(50, 49, 63)" stroke="none" stroke-width="1px">3k</text><text x="701.21875" y="0" dx="0em" dy="0.95em" style="text-anchor: middle; visibility: inherit; font-family: Roboto, sans-serif; font-size: 12px; font-weight: 200;" fill="rgb(50, 49, 63)" stroke="none" stroke-width="1px">4k</text><text x="841.4625" y="0" dx="0em" dy="0.95em" style="text-anchor: middle; visibility: inherit; font-family: Roboto, sans-serif; font-size: 12px; font-weight: 200;" fill="rgb(50, 49, 63)" stroke="none" stroke-width="1px">5k</text><text x="981.70625" y="0" dx="0em" dy="0.95em" style="text-anchor: middle; visibility: inherit; font-family: Roboto, sans-serif; font-size: 12px; font-weight: 200;" fill="rgb(50, 49, 63)" stroke="none" stroke-width="1px">6k</text><text x="1121.95" y="0" dx="0em" dy="0.95em" style="text-anchor: middle; visibility: inherit; font-family: Roboto, sans-serif; font-size: 12px; font-weight: 200;" fill="rgb(50, 49, 63)" stroke="none" stroke-width="1px">7k</text><text x="1262.1937500000001" y="0" dx="0em" dy="0.95em" style="text-anchor: middle; visibility: inherit; font-family: Roboto, sans-serif; font-size: 12px; font-weight: 200;" fill="rgb(50, 49, 63)" stroke="none" stroke-width="1px">8k</text><text x="1402.4375" y="0" dx="0em" dy="0.95em" style="text-anchor: middle; visibility: hidden; font-family: Roboto, sans-serif; font-size: 12px; font-weight: 200;" fill="rgb(50, 49, 63)" stroke="none" stroke-width="1px">9k</text></g><line x1="0" y1="0" x2="1402.4375" y2="0" fill="rgb(0, 0, 0)" stroke="rgb(204, 204, 204)" stroke-width="1px"></line></g></g></g></g></svg>